<mxfile host="65bd71144e">
    <diagram id="vUtlVhcQ9kOvdaOhw54v" name="Page-1">
        <mxGraphModel dx="828" dy="969" grid="1" gridSize="10" guides="1" tooltips="1" connect="1" arrows="1" fold="1" page="1" pageScale="1" pageWidth="850" pageHeight="1100" math="0" shadow="0">
            <root>
                <mxCell id="0"/>
                <mxCell id="1" parent="0"/>
                <mxCell id="6" value="Guest Memory" style="whiteSpace=wrap;strokeWidth=2;fillColor=#fff2cc;strokeColor=#d6b656;fontFamily=Verdana;fontStyle=1;fontSize=21;verticalAlign=top;" vertex="1" parent="1">
                    <mxGeometry x="320" y="100" width="280" height="390" as="geometry"/>
                </mxCell>
                <mxCell id="8" value="RAM Region #1" style="whiteSpace=wrap;strokeWidth=2;fillColor=#ffe6cc;strokeColor=#d79b00;fontFamily=Verdana;fontStyle=1;fontSize=19;" vertex="1" parent="1">
                    <mxGeometry x="320" y="160" width="280" height="50" as="geometry"/>
                </mxCell>
                <mxCell id="13" value="RAM Region #2" style="whiteSpace=wrap;strokeWidth=2;fillColor=#ffe6cc;strokeColor=#d79b00;fontFamily=Verdana;fontStyle=1;fontSize=19;" vertex="1" parent="1">
                    <mxGeometry x="320" y="230" width="280" height="130" as="geometry"/>
                </mxCell>
                <mxCell id="14" value="MMIO Region" style="whiteSpace=wrap;strokeWidth=2;fillColor=#FFEEDE;strokeColor=#d79b00;fontFamily=Verdana;fontStyle=1;fontSize=19;dashed=1;dashPattern=1 1;" vertex="1" parent="1">
                    <mxGeometry x="320" y="410" width="280" height="30" as="geometry"/>
                </mxCell>
                <mxCell id="15" value="&lt;div style=&quot;text-align: center;&quot;&gt;&lt;/div&gt;&lt;div style=&quot;text-align: center;&quot;&gt;&lt;/div&gt;" style="text;whiteSpace=wrap;html=1;" vertex="1" parent="1">
                    <mxGeometry x="630" y="250" width="200" height="50" as="geometry"/>
                </mxCell>
            </root>
        </mxGraphModel>
    </diagram>
</mxfile>